/* XPM */
static char *_2379808e7ec4d34a724a6ef22452679[] = {
/* columns rows colors chars-per-pixel */
"16 16 2 1 ",
"  c #215A8F",
". c None",
/* pixels */
"................",
"...........     ",
".......  .      ",
"......         .",
"...            .",
"..            ..",
"..            ..",
"..            ..",
".            ...",
".            ...",
".            ...",
"  .         ....",
"..    .     ....",
"...  .      ....",
"......     .....",
"................"
};
