<?xml version="1.0" standalone="no"?>
<!DOCTYPE svg PUBLIC "-//W3C//DTD SVG 20010904//EN"
 "http://www.w3.org/TR/2001/REC-SVG-20010904/DTD/svg10.dtd">
<svg version="1.0" xmlns="http://www.w3.org/2000/svg"
 width="467.000000pt" height="467.000000pt" viewBox="0 0 467.000000 467.000000"
 preserveAspectRatio="xMidYMid meet">
<metadata>
Created by potrace 1.15, written by Peter Selinger 2001-2017
</metadata>
<g transform="translate(0.000000,467.000000) scale(0.100000,-0.100000)"
fill="#000000" stroke="none">
<path d="M2230 3723 c0 -1 7 -8 15 -17 11 -11 29 -13 72 -9 39 4 54 3 49 -5
-3 -6 -14 -10 -24 -10 -9 1 -37 -5 -62 -12 -25 -7 -49 -14 -55 -16 -5 -1 -30
-7 -55 -14 -25 -7 -55 -14 -68 -16 -13 -1 -29 -7 -35 -13 -7 -5 -30 -11 -50
-13 -20 -1 -37 -5 -37 -9 0 -6 -66 -21 -100 -23 -8 -1 -26 -7 -39 -15 -19 -10
-21 -15 -10 -23 10 -7 8 -7 -8 -3 -13 3 -23 3 -23 -2 0 -4 -17 -26 -37 -48
-40 -44 -103 -138 -103 -155 0 -5 -9 -1 -21 11 -11 11 -27 18 -35 15 -8 -3
-14 -1 -14 5 0 6 -3 8 -7 6 -5 -3 -35 -1 -68 5 -52 8 -145 2 -247 -16 -40 -7
-161 -52 -176 -66 -10 -8 -40 -31 -67 -50 -58 -40 -134 -117 -174 -175 -57
-81 -73 -122 -276 -685 -172 -478 -350 -965 -377 -1030 -5 -14 -9 -26 -9 -27
0 -2 -6 -21 -15 -43 -18 -46 -16 -62 12 -67 143 -25 308 -23 360 5 11 6 24 11
29 11 35 5 97 27 140 49 57 31 82 50 144 110 24 23 46 42 50 42 3 0 26 34 50
76 24 41 45 73 48 71 4 -5 -54 -171 -117 -337 -56 -147 -141 -392 -137 -396 6
-7 633 -5 651 2 11 4 21 2 26 -6 4 -7 9 -8 11 -3 2 5 45 23 94 40 129 44 156
55 192 82 17 13 35 24 39 25 7 1 23 17 118 121 61 67 118 203 309 730 420
1160 677 1877 677 1890 0 3 -144 6 -320 7 -176 2 -320 2 -320 1z"/>
</g>
</svg>
